<svg width="1200" height="630" viewBox="0 0 1200 630" fill="none" xmlns="http://www.w3.org/2000/svg" role="img" aria-label="Aqualyx Leeds">
  <defs>
    <linearGradient id="bg" x1="0" y1="0" x2="1" y2="1">
      <stop offset="0%" stop-color="#F4FAFF"/>
      <stop offset="100%" stop-color="#E7F3FF"/>
    </linearGradient>
    <radialGradient id="orb1" cx="0" cy="0" r="1" gradientUnits="userSpaceOnUse" gradientTransform="translate(220 120) rotate(42) scale(340 200)">
      <stop offset="0%" stop-color="#7BC7FF" stop-opacity="0.45"/>
      <stop offset="100%" stop-color="#7BC7FF" stop-opacity="0"/>
    </radialGradient>
    <radialGradient id="orb2" cx="0" cy="0" r="1" gradientUnits="userSpaceOnUse" gradientTransform="translate(1000 520) rotate(20) scale(340 220)">
      <stop offset="0%" stop-color="#1F3A5F" stop-opacity="0.18"/>
      <stop offset="100%" stop-color="#1F3A5F" stop-opacity="0"/>
    </radialGradient>
    <linearGradient id="drop" x1="0" y1="0" x2="1" y2="1">
      <stop offset="0%" stop-color="#5FBFFF"/>
      <stop offset="100%" stop-color="#1F3A5F"/>
    </linearGradient>
  </defs>
  <rect width="1200" height="630" fill="url(#bg)"/>
  <ellipse cx="250" cy="120" rx="260" ry="140" fill="url(#orb1)"/>
  <ellipse cx="960" cy="500" rx="280" ry="170" fill="url(#orb2)"/>
  <rect x="110" y="140" width="980" height="350" rx="42" fill="white" fill-opacity="0.72" stroke="#CDE2F7"/>
  <rect x="160" y="205" width="120" height="120" rx="28" fill="#F4FAFF" stroke="#CFE4F8"/>
  <path d="M220 224C205 246 193 259 193 277C193 292 205 305 220 305C235 305 247 292 247 277C247 259 235 246 220 224Z" fill="url(#drop)"/>
  <path d="M180 311C191 302 206 297 220 297C234 297 249 302 260 311" stroke="#1F3A5F" stroke-width="4" stroke-linecap="round"/>
  <text x="320" y="268" fill="#1A2E48" font-family="Avenir Next, Nunito Sans, Segoe UI, sans-serif" font-size="76" font-weight="700">Aqualyx Leeds</text>
  <text x="320" y="332" fill="#2E6F9E" font-family="Avenir Next, Nunito Sans, Segoe UI, sans-serif" font-size="36" font-weight="600">Fat Dissolving Injections in Leeds</text>
  <text x="320" y="385" fill="#355571" font-family="Avenir Next, Nunito Sans, Segoe UI, sans-serif" font-size="30" font-weight="500">Transparent pricing • Free consultation • Results vary</text>
</svg>
